<svg width="25" height="16" viewBox="0 0 25 16" fill="none" xmlns="http://www.w3.org/2000/svg">
<path d="M0.100586 1.23084H24.3202C24.0724 0.514569 23.3924 6.10352e-05 22.5919 6.10352e-05H1.82894C1.02839 6.10352e-05 0.348467 0.514569 0.100586 1.23084Z" fill="#FF4B55"/>
<path d="M24.4209 4.9231H0V6.15382H24.4209V4.9231Z" fill="#FF4B55"/>
<path d="M24.4209 2.46136H0V3.69209H24.4209V2.46136Z" fill="#FF4B55"/>
<path d="M0 8.19429C0 8.42681 0.188546 8.61536 0.421069 8.61536H24.4209V7.38458H0V8.19429Z" fill="#FF4B55"/>
<path d="M24.4209 12.308H0V13.5388H24.4209V12.308Z" fill="#FF4B55"/>
<path d="M24.3203 14.7693H0.100586C0.348467 15.4856 1.02844 16.0001 1.82894 16.0001H22.5919C23.3925 16.0001 24.0724 15.4856 24.3203 14.7693Z" fill="#FF4B55"/>
<path d="M24.4209 9.84644H0V11.0772H24.4209V9.84644Z" fill="#FF4B55"/>
</svg>
